HIERARCHY
ROOT Hips
{
  OFFSET 7.333 -26.027 -164.856
  CHANNELS 6 Xposition Yposition Zposition Zrotation Xrotation Yrotation
  JOINT LeftUpLeg
  {
    OFFSET 10.092 0.000 0.000
    CHANNELS 3 Zrotation Xrotation Yrotation
    JOINT LeftLeg
    {
      OFFSET 0.000 -38.160 -0.000
    CHANNELS 3 Zrotation Xrotation Yrotation
      JOINT LeftFoot
      {
        OFFSET -0.000 -24.040 0.000
    CHANNELS 3 Zrotation Xrotation Yrotation
        End Site
        {
          OFFSET -0.000 0.000 12.945
        }
      }
    }
  }
  JOINT RightUpLeg
  {
    OFFSET -10.092 -0.000 0.000
    CHANNELS 3 Zrotation Xrotation Yrotation
    JOINT RightLeg
    {
      OFFSET 0.000 -33.046 0.000
    CHANNELS 3 Zrotation Xrotation Yrotation
      JOINT RightFoot
      {
        OFFSET 0.000 -22.031 -0.000
    CHANNELS 3 Zrotation Xrotation Yrotation
        End Site
        {
          OFFSET 0.000 -0.000 11.863
        }
      }
    }
  }
  JOINT Spine
  {
    OFFSET -0.000 16.511 0.000
    CHANNELS 3 Zrotation Xrotation Yrotation
    JOINT LeftShoulder
    {
      OFFSET 0 16.511 0
    CHANNELS 3 Zrotation Xrotation Yrotation
      JOINT LeftArm
      {
        OFFSET 16.337 0.000 0.000
    CHANNELS 3 Zrotation Xrotation Yrotation
        JOINT LeftForeArm
        {
          OFFSET 0.000 -24.030 0.000
    CHANNELS 3 Zrotation Xrotation Yrotation
          JOINT LeftHand
          {
            OFFSET 0.000 -17.629 -0.000
    CHANNELS 3 Zrotation Xrotation Yrotation
            End Site
            {
              OFFSET 0.000 -11.753 -0.000
            }
          }
        }
      }
    }
    JOINT RightShoulder
    {
      OFFSET 0 16.511 0
    CHANNELS 3 Zrotation Xrotation Yrotation
      JOINT RightArm
      {
        OFFSET -16.337 0.000 0.000
    CHANNELS 3 Zrotation Xrotation Yrotation
        JOINT RightForeArm
        {
          OFFSET -0.000 -19.534 0.000
    CHANNELS 3 Zrotation Xrotation Yrotation
          JOINT RightHand
          {
            OFFSET 0.000 -19.514 -0.000
    CHANNELS 3 Zrotation Xrotation Yrotation
            End Site
            {
              OFFSET 0.000 -13.010 -0.000
            }
          }
        }
      }
    }
    JOINT Neck
    {
      OFFSET -0.000 16.511 0.000
    CHANNELS 3 Zrotation Xrotation Yrotation
      JOINT Head
      {
        OFFSET -0.000 12.493 -0.000
    CHANNELS 3 Zrotation Xrotation Yrotation
        End Site
        {
          OFFSET -0.000 8.328 -0.000
        }
      }
    }
  }
}
MOTION
Frames: 20
Frame Time: 0.0333333
0 0 0 -8.398140e-01 -2.637877e-01 4.563160e-01 -9.940348e-01 1.007320e+01 1.739176e-01 2.448009e+00 -1.260370e+01 3.207913e-01 0 0 0 1.005513e+00 1.374930e+01 -2.391918e-01 3.560475e+00 -1.669232e+01 1.306020e+00 0 -2.747220e-08 0 -8.947193e-07 0 4.199197e-05 0 0 0 1.250330e+01 2.804080e+00 3.354910e+01 -1.506071e+01 -8.218300e-01 4.189879e+00 0 2.396310e-08 NaN 0 0 0 -1.129097e+01 -5.358992e+01 7.731050e+01 -8.249291e+01 -1.118066e+01 -7.338107e+01 NaN -4.000975e-08 5.619518e-08 3.000099e-01 -9.847709e-01 5.155000e-03 0 0 5.458245e-09 
0 0 0 -6.224914e-01 4.064074e-01 7.086490e-01 -1.590616e+00 9.063564e+00 2.505515e-01 2.850634e+00 -1.164430e+01 2.584609e-01 0 0 0 8.262120e-01 1.318898e+01 -1.881637e-01 3.130600e+00 -1.695304e+01 1.147070e+00 0 NaN 0 -7.496822e-07 0 1.149107e-04 0 0 0 1.280480e+01 2.313760e+00 3.150130e+01 -1.600909e+01 -1.446230e+00 4.161860e+00 0 2.329203e-08 2.054921e-06 0 0 0 -8.471891e+00 -5.336180e+01 8.046150e+01 -7.083400e+01 -8.844518e+00 -2.815092e+01 NaN -5.548443e-08 1.393286e-08 3.245748e-01 -7.674880e-01 4.345000e-03 0 0 -6.252451e-09 
0 0 0 -7.567140e-01 7.521900e-02 2.617330e+00 -1.002966e+00 8.902965e+00 1.551934e-01 2.294792e+00 -1.169100e+01 2.645712e-01 0 0 0 9.440547e-01 1.294040e+01 -2.071689e-01 3.749710e+00 -1.572920e+01 1.267050e+00 0 -4.069276e-08 0 NaN 0 -3.400000e-05 0 0 0 1.307021e+01 8.920410e-01 2.619860e+01 -1.570951e+01 -1.812175e+00 4.302384e+00 0 1.796986e-08 8.718779e-07 0 0 0 -8.454830e+00 -4.978380e+01 7.986807e+01 -5.315768e+01 -6.964420e+00 -9.616270e+00 -7.472361e-07 3.032086e-08 4.305269e-08 -7.503522e-02 -1.258120e+00 -1.687007e-03 0 0 -9.700670e-10 
0 0 0 -1.080060e+00 -4.320680e-01 4.100549e+00 -3.631241e-02 9.462541e+00 5.891644e-03 1.456115e+00 -1.193509e+01 2.940314e-01 0 0 0 2.433114e+00 1.470755e+01 -6.166812e-01 2.109897e+00 -1.803160e+01 1.387607e+00 0 -3.048934e-08 0 -7.134353e-07 0 2.800000e-05 0 0 0 1.310193e+01 -2.795400e-02 2.279990e+01 -1.499440e+01 -1.822062e+00 4.433335e+00 0 2.188744e-08 NaN 0 0 0 -9.599181e+00 -4.210316e+01 7.706921e+01 -4.287785e+01 -9.446925e+00 -8.774381e+00 NaN 3.443759e-09 4.123148e-07 -4.010156e-01 -1.081882e+00 -7.574000e-03 0 0 6.983306e-07 
0 0 0 -1.390996e+00 -9.766940e-01 4.171110e+00 5.842670e-01 9.563641e+00 -9.707200e-02 1.336558e+00 -1.045805e+01 3.472351e-01 0 0 0 3.496769e+00 1.529153e+01 -9.232820e-01 8.702297e-01 -1.764774e+01 1.288484e+00 0 -4.535864e-08 0 -9.063205e-07 0 -1.998590e-05 0 0 0 1.387206e+01 3.216381e-01 2.284015e+01 -1.521440e+01 -1.686663e+00 4.452671e+00 0 2.067752e-08 -2.651788e-07 0 0 0 -6.430428e+00 -3.703751e+01 8.044309e+01 -2.916262e+01 -7.448432e+00 -4.123630e+00 3.503426e-08 -1.538793e-08 NaN -1.035794e-01 -9.918488e-01 -1.793000e-03 0 0 NaN 
0 0 0 -1.266490e+00 -1.120744e+00 3.717731e+00 8.810433e-01 1.078727e+01 -1.649141e-01 1.119630e+00 -1.266010e+01 4.348912e-01 0 0 0 3.398213e+00 1.490650e+01 -8.751080e-01 1.252797e+00 -1.656844e+01 1.295830e+00 0 -1.038909e-08 0 -2.646978e-23 0 -2.300000e-05 0 0 0 1.449835e+01 5.425927e-01 2.278270e+01 -1.583870e+01 -1.792893e+00 4.443663e+00 0 1.708280e-08 -3.857656e-07 0 0 0 -3.991890e+00 -3.370305e+01 8.362765e+01 -1.858320e+01 -4.935780e+00 -1.654270e+00 6.223727e-07 8.579306e-09 NaN 3.726500e-02 -9.958280e-01 6.470000e-04 0 0 NaN 
0 0 0 -1.153133e+00 -5.385440e-01 3.464981e+00 1.033549e+00 9.721200e+00 -1.751960e-01 4.043758e-01 -1.113650e+01 2.760718e-01 0 0 0 3.966320e+00 1.443990e+01 -9.904014e-01 -2.044050e-01 -1.646697e+01 1.031846e+00 0 NaN 0 -1.130999e-06 0 -4.200000e-05 0 0 0 1.460520e+01 8.047203e-01 2.351440e+01 -1.617168e+01 -2.406990e+00 4.242697e+00 0 2.278891e-08 NaN 0 0 0 -4.118790e+00 -3.015783e+01 8.294810e+01 -1.750852e+01 -6.346110e+00 -1.946049e+00 NaN -3.674538e-09 -1.757549e-09 2.181331e-01 -4.193846e-01 1.590086e-03 0 0 -2.383892e-09 
0 0 0 -6.794354e-01 -9.315890e-01 3.406904e+00 4.638802e-01 9.551510e+00 -7.698163e-02 1.676820e-01 -9.604579e+00 1.042640e-01 0 0 0 3.416910e+00 1.458320e+01 -8.612860e-01 -2.894530e-01 -1.609244e+01 8.373830e-01 0 -2.574455e-08 0 -1.096080e-06 0 -1.700000e-05 0 0 0 1.415420e+01 7.630618e-01 2.396330e+01 -1.638265e+01 -1.391710e+00 4.497781e+00 0 2.463651e-08 NaN 0 0 0 -5.148880e+00 -2.977090e+01 8.116420e+01 -1.694335e+01 -6.976500e+00 -2.063498e+00 NaN 2.652902e-08 -1.852418e-10 3.341082e-01 -4.920270e-01 2.867775e-03 0 0 1.023273e-08 
0 0 0 -5.277399e-01 -8.240558e-01 3.586103e+00 -3.526140e-01 9.491430e+00 5.814600e-02 1.422370e+00 -9.975930e+00 1.861760e-01 0 0 0 2.287170e+00 1.542510e+01 -6.086390e-01 1.381860e+00 -1.773910e+01 1.094070e+00 0 -1.587302e-08 0 0 0 2.698945e-05 0 0 0 1.345995e+01 4.329836e-02 2.261560e+01 -1.599052e+01 -9.647070e-01 4.700532e+00 0 NaN 2.839069e-07 0 0 0 -6.501260e+00 -3.187590e+01 7.939340e+01 -1.955211e+01 -8.062140e+00 -2.747672e+00 6.163814e-07 1.515449e-08 2.034586e-08 8.353500e-02 -7.375740e-01 1.079205e-03 0 0 -3.019266e-09 
0 0 0 -5.204454e-01 -8.510743e-01 3.344682e+00 -4.890417e-01 9.936420e+00 8.425079e-02 1.415630e+00 -1.117415e+01 1.812124e-01 0 0 0 1.982540e+00 1.536230e+01 -5.254210e-01 1.854430e+00 -1.787960e+01 1.157777e+00 0 -2.639436e-08 0 -9.888487e-07 0 -9.800000e-05 0 0 0 1.338314e+01 -9.145274e-02 2.228720e+01 -1.557850e+01 -7.430410e-01 4.792340e+00 0 2.469360e-08 NaN 0 0 0 -6.669117e+00 -3.509350e+01 7.986620e+01 -2.561615e+01 -7.862580e+00 -3.574794e+00 NaN 1.825630e-08 1.717954e-08 9.944700e-02 -7.750170e-01 1.344519e-03 0 0 1.487351e-10 
0 0 0 -3.061880e-01 -7.915893e-01 3.293665e+00 -9.430380e-01 9.195047e+00 1.506860e-01 1.747814e+00 -9.379806e+00 1.330380e-01 0 0 0 1.811000e+00 1.556633e+01 -4.861360e-01 1.771420e+00 -1.815300e+01 1.096753e+00 0 -2.464624e-08 0 -6.863163e-07 0 1.000000e-05 0 0 0 1.311400e+01 -2.657623e-01 2.209265e+01 -1.484281e+01 -1.347910e+00 4.639410e+00 0 2.917295e-08 NaN 0 0 0 -6.337078e+00 -3.864034e+01 8.097789e+01 -3.661349e+01 -6.297278e+00 -4.521923e+00 NaN 6.784903e-09 3.232056e-08 4.678453e-02 -8.377693e-01 6.860561e-04 0 0 -2.201795e-08 
0 0 0 -1.343910e-01 -5.954400e-01 2.878530e+00 -1.689090e+00 8.973110e+00 2.635220e-01 2.867818e+00 -9.907720e+00 2.064120e-01 0 0 0 1.072620e+00 1.402730e+01 -2.600060e-01 2.653780e+00 -1.552150e+01 9.899040e-01 0 NaN 0 NaN 0 9.700000e-05 0 0 0 1.259630e+01 -4.288758e-01 2.235842e+01 -1.506650e+01 -1.872000e+00 4.506230e+00 0 NaN 3.545289e-07 0 0 0 -6.965874e+00 -4.314064e+01 8.083570e+01 -4.751980e+01 -6.216410e+00 -6.762869e+00 1.706923e-07 3.218349e-09 2.213832e-08 -5.829000e-03 -9.783339e-01 -1.000000e-04 0 0 -2.339231e-09 
0 0 0 1.722280e-01 -5.038940e-01 2.350404e+00 -2.535580e+00 8.957485e+00 3.950643e-01 3.062402e+00 -1.015930e+01 9.773000e-02 0 0 0 -3.372600e-02 1.367970e+01 7.708156e-03 3.288020e+00 -1.547480e+01 8.695402e-01 0 -2.483312e-08 0 NaN 0 2.000000e-05 0 0 0 1.161670e+01 1.102584e-01 2.592808e+01 -1.508025e+01 -1.809327e+00 4.320557e+00 0 2.462599e-08 NaN 0 0 0 -9.681526e+00 -4.599249e+01 7.784712e+01 -6.376957e+01 -9.763140e+00 -2.016923e+01 NaN 4.172344e-09 7.834760e-08 2.334730e-01 -9.288780e-01 3.785000e-03 0 0 7.295987e-09 
0 0 0 6.777900e-01 -7.200690e-01 1.841218e+00 -3.822278e+00 9.585315e+00 6.371933e-01 3.877530e+00 -1.058724e+01 1.981400e-02 0 0 0 -1.289320e+00 1.503262e+01 3.344760e-01 3.977496e+00 -1.769520e+01 8.314820e-01 0 -2.194055e-08 0 -1.892097e-07 0 -4.200000e-05 0 0 0 1.114851e+01 7.060009e-01 2.905504e+01 -1.527858e+01 -1.599878e+00 4.190750e+00 0 2.775328e-08 NaN 0 0 0 -1.163579e+01 -4.890716e+01 7.604924e+01 -7.716550e+01 -1.174540e+01 -5.117135e+01 NaN -3.635248e-07 3.411427e-07 1.552627e-02 -1.032780e+00 2.770000e-04 0 0 7.456326e-09 
0 0 0 5.648421e-01 -1.176450e+00 2.123082e+00 -3.844370e+00 1.012534e+01 6.768620e-01 3.831223e+00 -9.955860e+00 7.861000e-03 0 0 0 -1.697880e+00 1.500610e+01 4.396525e-01 4.812967e+00 -1.611320e+01 8.814887e-01 0 -1.666667e-08 0 3.654045e-08 0 -2.297438e-05 0 0 0 1.108597e+01 1.305120e+00 3.116942e+01 -1.510825e+01 -1.214638e+00 4.119429e+00 0 1.890370e-08 5.511083e-08 0 0 0 -1.391737e+01 -5.432427e+01 7.422870e+01 -8.533338e+01 -9.908130e+00 -8.994346e+01 1.809285e-07 NaN NaN 1.191200e-01 -1.108535e+00 2.306000e-03 0 0 -6.840232e-09 
0 0 0 9.002000e-02 -6.564800e-02 1.956045e+00 -3.031080e+00 8.936592e+00 4.713452e-01 3.791307e+00 -1.015060e+01 1.410427e-01 0 0 0 -2.093291e-01 1.365621e+01 4.943058e-02 3.173416e+00 -1.587491e+01 8.127208e-01 0 -2.231028e-08 0 -1.001392e-06 0 6.021294e-06 0 0 0 1.193220e+01 1.498790e+00 3.024423e+01 -1.607206e+01 -2.350335e+00 3.889104e+00 0 3.541734e-08 -9.154825e-08 0 0 0 -1.474782e+01 -5.669549e+01 7.367870e+01 -9.586248e+01 -8.342982e+00 -1.456202e+02 6.995624e-07 NaN NaN 2.050567e-01 -8.390478e-01 3.004015e-03 0 0 -4.921704e-09 
0 0 0 -1.283650e-01 1.790910e-01 2.220593e+00 -2.162350e+00 8.683401e+00 3.266050e-01 2.294597e+00 -9.799920e+00 2.508200e-02 0 0 0 2.855920e-01 1.381530e+01 -6.820000e-02 2.855210e+00 -1.659350e+01 8.953931e-01 0 -2.657249e-08 0 -8.155845e-07 0 6.200000e-05 0 0 0 1.209630e+01 1.785110e+00 3.079660e+01 -1.614766e+01 -2.521730e+00 3.784120e+00 0 3.367876e-08 3.161655e-07 0 0 0 -1.686248e+01 -5.659440e+01 7.134122e+01 -1.032203e+02 -8.466390e+00 -1.584570e+02 NaN -1.176531e-08 4.157803e-08 1.945523e-01 -6.725251e-01 2.286726e-03 0 0 1.650127e-10 
0 0 0 -1.973486e-01 1.001982e+00 2.321265e+00 -1.810886e+00 8.742466e+00 2.752624e-01 1.899823e+00 -1.177320e+01 2.244600e-02 0 0 0 3.778503e-01 1.278357e+01 -8.354934e-02 3.098012e+00 -1.639400e+01 9.790780e-01 0 -3.140048e-08 0 0 0 1.501337e-05 0 0 0 1.211642e+01 1.268030e+00 2.911890e+01 -1.562616e+01 -2.830916e+00 3.840000e+00 0 2.469289e-08 NaN 0 0 0 -1.729931e+01 -5.745177e+01 7.097750e+01 -1.054150e+02 -7.788948e+00 -1.624245e+02 NaN -2.621847e-08 2.604432e-07 4.450270e-01 -5.782604e-01 4.468863e-03 0 0 4.262606e-09 
0 0 0 -1.970418e-01 5.788036e-01 1.947538e+00 -1.810673e+00 8.852110e+00 2.787034e-01 2.013196e+00 -1.170335e+01 4.562278e-02 0 0 0 4.349925e-01 1.310860e+01 -9.874968e-02 3.169116e+00 -1.666329e+01 1.031205e+00 0 -2.638175e-08 0 -7.559368e-07 0 -1.190000e-04 0 0 0 1.214537e+01 1.885270e+00 3.110156e+01 -1.581401e+01 -1.999434e+00 3.943949e+00 0 2.342441e-08 NaN 0 0 0 -1.604460e+01 -5.836629e+01 7.250390e+01 -1.018240e+02 -7.898166e+00 -1.581530e+02 6.788372e-07 2.735269e-09 NaN 4.455320e-01 -9.757040e-01 7.585421e-03 0 0 -3.303651e-07 
0 0 0 -2.001412e-01 3.145411e-01 2.221877e+00 -1.907548e+00 9.044141e+00 2.459262e-01 2.429569e+00 -1.153575e+01 7.678953e-02 0 0 0 7.100559e-01 1.306412e+01 -1.561311e-01 3.315373e+00 -1.642015e+01 1.070691e+00 0 -3.240188e-08 0 -1.026447e-06 0 8.000000e-05 0 0 0 1.214218e+01 1.268030e+00 3.019150e+01 -1.583624e+01 -1.610242e+00 4.014344e+00 0 2.061845e-08 -1.248248e-07 0 0 0 -1.525358e+01 -5.721417e+01 7.412048e+01 -1.021776e+02 -7.434878e+00 -1.585151e+02 NaN -2.164093e-08 -4.201681e-08 1.073001e-01 NaN 4.316283e-03 0 0 NaN 
